# xmcd
#
# Track frame offsets:
# 150
# 19059
# 49679
# 68967
# 100489
# 121171
# 137666
# 150158
# 162348
# 167927
# 193351
# 225394
# 261779
# 304772
#
# Disc length: 4403 seconds
#
# Revision: 0
# Processed by: cddbd v1.4PL0 Copyright (c) Steve Scherf et al.
# Submitted via: Audion 2.6.0 (http://www.panic.com/audion/)
#
DISCID=b811310e
DTITLE=mix - mix
DYEAR=1900
DGENRE=
TTITLE0=yo la tengo
TTITLE1=sigur ros
TTITLE2=sparklehorse
TTITLE3=mogwai
TTITLE4=yo la tengo
TTITLE5=pernice bros
TTITLE6=badly drawn boy
TTITLE7=the clienele
TTITLE8=yo la tengo
TTITLE9=daves
TTITLE10=badly drawn boy
TTITLE11=sigur ros
TTITLE12=mogwai
TTITLE13=yo la tengo
EXTD=
EXTT0=
EXTT1=
EXTT2=
EXTT3=
EXTT4=
EXTT5=
EXTT6=
EXTT7=
EXTT8=
EXTT9=
EXTT10=
EXTT11=
EXTT12=
EXTT13=
PLAYORDER=
